# xmcd
#
# Track frame offsets: 
#        150
#        15606
#        28676
#        40243
#        49373
#        61537
#        73747
#        84775
#        104840
#        118676
#        130958
#        142878
#
# Disc length: 2059 seconds
#
# Revision: 0
# Processed by: cddbd v1.5.2PL0 Copyright (c) Steve Scherf et al.
# Submitted via: ExactAudioCopy v1.1
#
DISCID=a208090c
DTITLE=The Manhattans - A Million to One
DYEAR=1972
DGENRE=Soul
TTITLE0=A Million to One
TTITLE1=It's the Only Way
TTITLE2=Back Up
TTITLE3=You on My Mind
TTITLE4=Fever
TTITLE5=Do You Ever
TTITLE6=Strange Old World
TTITLE7=One Life to Live
TTITLE8=Blackbird
TTITLE9=Cry If You Wanna Cry
TTITLE10=Teenage Liberation
TTITLE11=I Can't Stand for You to Leave Me
EXTD=
EXTT0=
EXTT1=
EXTT2=
EXTT3=
EXTT4=
EXTT5=
EXTT6=
EXTT7=
EXTT8=
EXTT9=
EXTT10=
EXTT11=
PLAYORDER=
